<svg width="89" height="21" viewBox="0 0 89 21" fill="none" xmlns="http://www.w3.org/2000/svg">
<path d="M67.9318 5L62 9.5L67.9318 14" stroke="black" stroke-width="2" stroke-linecap="round" stroke-linejoin="round"/>
<path d="M0.911932 13V4.27273H6.40909V5.49574H2.35227V8.01847H6.02131V9.24148H2.35227V13H0.911932ZM8.45795 13V6.45455H9.85568V13H8.45795ZM9.16534 5.48295C8.93239 5.48295 8.7321 5.40483 8.56449 5.24858C8.39972 5.09233 8.31733 4.90483 8.31733 4.68608C8.31733 4.46733 8.39972 4.27983 8.56449 4.12358C8.7321 3.96733 8.93097 3.8892 9.16108 3.8892C9.39403 3.8892 9.5929 3.96733 9.75767 4.12358C9.92528 4.27983 10.0091 4.46733 10.0091 4.68608C10.0091 4.90483 9.92528 5.09233 9.75767 5.24858C9.5929 5.40483 9.39545 5.48295 9.16534 5.48295ZM13.5026 4.27273V13H12.1048V4.27273H13.5026ZM18.9051 6.45455V7.55398H15.2446V6.45455H18.9051ZM16.1906 4.88636H17.5884V11.0568C17.5884 11.2841 17.6224 11.4574 17.6906 11.5767C17.7588 11.6932 17.8483 11.7727 17.9591 11.8153C18.0727 11.858 18.1977 11.8793 18.3341 11.8793C18.4335 11.8793 18.5216 11.8722 18.5983 11.858C18.6778 11.8437 18.7389 11.831 18.7815 11.8196L19.0244 12.9446C18.9449 12.9702 18.8341 12.9986 18.692 13.0298C18.55 13.0639 18.3724 13.0838 18.1594 13.0895C17.8014 13.098 17.4733 13.0384 17.175 12.9105C16.8767 12.7827 16.6366 12.5866 16.4548 12.3224C16.2759 12.0554 16.1878 11.7202 16.1906 11.3168V4.88636ZM23.6525 13.1321C23.0019 13.1321 22.4408 12.9943 21.9692 12.7188C21.5005 12.4403 21.1383 12.0497 20.8826 11.5469C20.6298 11.0412 20.5033 10.4489 20.5033 9.76989C20.5033 9.09659 20.6298 8.50568 20.8826 7.99716C21.1383 7.4858 21.4948 7.08665 21.9522 6.79972C22.4096 6.51278 22.9465 6.36932 23.563 6.36932C23.9494 6.36932 24.3187 6.43182 24.671 6.55682C25.0232 6.68182 25.3371 6.87784 25.6127 7.14489C25.8883 7.40909 26.1056 7.75 26.2647 8.16761C26.4266 8.58239 26.5076 9.08239 26.5076 9.66761V10.1278H21.2278V9.13494H25.1482C25.1482 8.8196 25.0829 8.53835 24.9522 8.29119C24.8215 8.04403 24.6383 7.84943 24.4025 7.70739C24.1667 7.5625 23.8925 7.49006 23.58 7.49006C23.2391 7.49006 22.9423 7.57244 22.6894 7.73722C22.4366 7.89915 22.2406 8.11364 22.1013 8.38068C21.965 8.64489 21.8954 8.93182 21.8925 9.24148V10.0597C21.8925 10.4716 21.9664 10.8239 22.1141 11.1165C22.2619 11.4062 22.4678 11.6278 22.732 11.7812C22.9991 11.9318 23.3102 12.0071 23.6653 12.0071C23.9011 12.0071 24.1141 11.9744 24.3045 11.9091C24.4948 11.8437 24.6596 11.7443 24.7988 11.6108C24.938 11.4773 25.0445 11.3125 25.1184 11.1165L26.4352 11.3082C26.3386 11.6747 26.1638 11.9943 25.911 12.267C25.661 12.5398 25.3442 12.7528 24.9607 12.9062C24.5772 13.0568 24.1411 13.1321 23.6525 13.1321ZM28.4712 13V6.45455H29.8263V7.51989H29.8945C30.0138 7.15625 30.2212 6.87216 30.5167 6.66761C30.815 6.46023 31.1545 6.35653 31.5352 6.35653C31.6147 6.35653 31.7085 6.3608 31.8164 6.36932C31.9244 6.375 32.0124 6.38352 32.0806 6.39489V7.70739C32.0238 7.6875 31.9272 7.66903 31.7908 7.65199C31.6573 7.6321 31.5252 7.62216 31.3945 7.62216C31.1019 7.62216 30.8406 7.68466 30.6104 7.80966C30.3803 7.93182 30.1985 8.10227 30.065 8.32102C29.9343 8.53977 29.869 8.78977 29.869 9.07102V13H28.4712Z" fill="black"/>
</svg>
