<svg width="11" height="10" viewBox="0 0 11 10" fill="none" xmlns="http://www.w3.org/2000/svg">
<path d="M9.2565 5.2917L5.5065 9.0057L1.7565 5.2917C1.50915 5.05101 1.31432 4.76171 1.18427 4.44202C1.05422 4.12233 0.991779 3.77918 1.00087 3.43417C1.00995 3.08916 1.09038 2.74977 1.23708 2.43737C1.38377 2.12497 1.59357 1.84633 1.85324 1.61899C2.11292 1.39166 2.41685 1.22055 2.7459 1.11644C3.07496 1.01234 3.422 0.977496 3.76518 1.0141C4.10836 1.05071 4.44025 1.15798 4.73994 1.32916C5.03962 1.50033 5.30062 1.7317 5.5065 2.0087C5.71327 1.73371 5.97457 1.50436 6.27405 1.33501C6.57353 1.16565 6.90475 1.05993 7.24696 1.02446C7.58918 0.988999 7.93504 1.02455 8.26288 1.1289C8.59073 1.23325 8.89351 1.40414 9.15227 1.63089C9.41104 1.85763 9.62021 2.13535 9.76671 2.44665C9.91321 2.75795 9.99387 3.09615 10.0037 3.44006C10.0134 3.78397 9.95213 4.1262 9.82357 4.44533C9.695 4.76446 9.50195 5.05361 9.2565 5.2947" stroke="black" stroke-linecap="round" stroke-linejoin="round"/>
</svg>
