<svg width="8" height="7" viewBox="0 0 8 7" fill="none" xmlns="http://www.w3.org/2000/svg">
<path d="M4 6.99999C3.94736 7.00031 3.89519 6.98992 3.84646 6.96943C3.79773 6.94894 3.75341 6.91874 3.71604 6.88058L0.608454 3.67696C0.21865 3.27144 0 2.72394 0 2.15339C0 1.58285 0.21865 1.03535 0.608454 0.629823C1.00131 0.226493 1.53346 0 2.08826 0C2.64305 0 3.17521 0.226493 3.56806 0.629823L4 1.07454L4.43194 0.629823C4.82479 0.226493 5.35695 0 5.91174 0C6.46654 0 6.99869 0.226493 7.39155 0.629823C7.78135 1.03535 8 1.58285 8 2.15339C8 2.72394 7.78135 3.27144 7.39155 3.67696L4.28396 6.88058C4.24659 6.91874 4.20227 6.94894 4.15354 6.96943C4.10481 6.98992 4.05264 7.00031 4 6.99999ZM2.08826 0.823357C1.91895 0.822568 1.75117 0.856374 1.59464 0.922816C1.43812 0.989258 1.29595 1.08702 1.17638 1.21043C0.934834 1.46042 0.799243 1.79871 0.799243 2.15133C0.799243 2.50396 0.934834 2.84224 1.17638 3.09224L4 6.0035L6.82362 3.09224C7.06517 2.84224 7.20076 2.50396 7.20076 2.15133C7.20076 1.79871 7.06517 1.46042 6.82362 1.21043C6.57712 0.970653 6.25086 0.837068 5.91174 0.837068C5.57263 0.837068 5.24637 0.970653 4.99987 1.21043L4.28396 1.95162C4.24678 1.99022 4.20255 2.02085 4.15381 2.04176C4.10507 2.06266 4.0528 2.07343 4 2.07343C3.9472 2.07343 3.89493 2.06266 3.84619 2.04176C3.79745 2.02085 3.75322 1.99022 3.71604 1.95162L3.00013 1.21043C2.88056 1.08702 2.73839 0.989258 2.58187 0.922816C2.42534 0.856374 2.25756 0.822568 2.08826 0.823357Z" fill="#231F20"/>
</svg>
